<mxfile host="app.diagrams.net" agent="Mozilla/5.0 (Windows NT 10.0; Win64; x64) AppleWebKit/537.36 (KHTML, like Gecko) Chrome/134.0.0.0 Safari/537.36" version="26.1.1">
  <diagram name="PÃ¡gina-1" id="eJZAH4yoX0a-xktG-9te">
    <mxGraphModel dx="1252" dy="1814" grid="0" gridSize="10" guides="1" tooltips="1" connect="1" arrows="1" fold="1" page="0" pageScale="1" pageWidth="827" pageHeight="1169" math="0" shadow="0">
      <root>
        <mxCell id="0" />
        <mxCell id="1" parent="0" />
        <mxCell id="BPMYpQ-44nugHqJNpAQk-14" style="edgeStyle=none;curved=1;rounded=0;orthogonalLoop=1;jettySize=auto;html=1;exitX=0.5;exitY=1;exitDx=0;exitDy=0;exitPerimeter=0;entryX=0.5;entryY=0;entryDx=0;entryDy=0;fontSize=12;startSize=8;endSize=8;" edge="1" parent="1" source="BPMYpQ-44nugHqJNpAQk-2" target="BPMYpQ-44nugHqJNpAQk-4">
          <mxGeometry relative="1" as="geometry" />
        </mxCell>
        <mxCell id="BPMYpQ-44nugHqJNpAQk-2" value="INICIO" style="strokeWidth=2;html=1;shape=mxgraph.flowchart.start_1;whiteSpace=wrap;fillColor=#d5e8d4;strokeColor=#82b366;" vertex="1" parent="1">
          <mxGeometry x="-57" y="-725" width="100" height="60" as="geometry" />
        </mxCell>
        <mxCell id="BPMYpQ-44nugHqJNpAQk-3" value="FIM" style="strokeWidth=2;html=1;shape=mxgraph.flowchart.start_1;whiteSpace=wrap;fillColor=#d5e8d4;strokeColor=#82b366;" vertex="1" parent="1">
          <mxGeometry x="-52" y="136" width="100" height="60" as="geometry" />
        </mxCell>
        <mxCell id="BPMYpQ-44nugHqJNpAQk-4" value="SOMA_PRODUTOS = 0&lt;br&gt;VERIFICA = &quot;N&quot;" style="rounded=1;whiteSpace=wrap;html=1;absoluteArcSize=1;arcSize=14;strokeWidth=2;fillColor=#f5f5f5;fontColor=#333333;strokeColor=#666666;" vertex="1" parent="1">
          <mxGeometry x="-89" y="-644" width="164" height="51" as="geometry" />
        </mxCell>
        <mxCell id="BPMYpQ-44nugHqJNpAQk-5" value="PRODUTO" style="html=1;strokeWidth=2;shape=manualInput;whiteSpace=wrap;rounded=1;size=26;arcSize=11;fillColor=#dae8fc;strokeColor=#6c8ebf;" vertex="1" parent="1">
          <mxGeometry x="-57" y="-572" width="100" height="60" as="geometry" />
        </mxCell>
        <mxCell id="BPMYpQ-44nugHqJNpAQk-6" value="VALOR" style="html=1;strokeWidth=2;shape=manualInput;whiteSpace=wrap;rounded=1;size=26;arcSize=11;fillColor=#dae8fc;strokeColor=#6c8ebf;" vertex="1" parent="1">
          <mxGeometry x="-57" y="-485" width="100" height="60" as="geometry" />
        </mxCell>
        <mxCell id="BPMYpQ-44nugHqJNpAQk-21" style="edgeStyle=none;curved=1;rounded=0;orthogonalLoop=1;jettySize=auto;html=1;exitX=0;exitY=0.5;exitDx=0;exitDy=0;exitPerimeter=0;fontSize=12;startSize=8;endSize=8;" edge="1" parent="1" source="BPMYpQ-44nugHqJNpAQk-7" target="BPMYpQ-44nugHqJNpAQk-9">
          <mxGeometry relative="1" as="geometry" />
        </mxCell>
        <mxCell id="BPMYpQ-44nugHqJNpAQk-22" value="SIM" style="edgeLabel;html=1;align=center;verticalAlign=middle;resizable=0;points=[];fontSize=12;" vertex="1" connectable="0" parent="BPMYpQ-44nugHqJNpAQk-21">
          <mxGeometry x="-0.2991" y="-5" relative="1" as="geometry">
            <mxPoint as="offset" />
          </mxGeometry>
        </mxCell>
        <mxCell id="BPMYpQ-44nugHqJNpAQk-7" value="VERIFICA = &quot;S&quot;" style="strokeWidth=2;html=1;shape=mxgraph.flowchart.decision;whiteSpace=wrap;fillColor=#ffe6cc;strokeColor=#d79b00;" vertex="1" parent="1">
          <mxGeometry x="-76.5" y="-365" width="139" height="131" as="geometry" />
        </mxCell>
        <mxCell id="BPMYpQ-44nugHqJNpAQk-17" value="" style="edgeStyle=none;curved=1;rounded=0;orthogonalLoop=1;jettySize=auto;html=1;fontSize=12;startSize=8;endSize=8;" edge="1" parent="1" source="BPMYpQ-44nugHqJNpAQk-8" target="BPMYpQ-44nugHqJNpAQk-7">
          <mxGeometry relative="1" as="geometry" />
        </mxCell>
        <mxCell id="BPMYpQ-44nugHqJNpAQk-8" value="" style="verticalLabelPosition=bottom;verticalAlign=top;html=1;shape=mxgraph.flowchart.on-page_reference;fillColor=#f5f5f5;gradientColor=#b3b3b3;strokeColor=#666666;" vertex="1" parent="1">
          <mxGeometry x="-28" y="-412" width="36" height="34" as="geometry" />
        </mxCell>
        <mxCell id="BPMYpQ-44nugHqJNpAQk-9" value="SOMA_PRODUTOS = SOMA_PRODUTOS + VALOR" style="rounded=1;whiteSpace=wrap;html=1;absoluteArcSize=1;arcSize=14;strokeWidth=2;fillColor=#f5f5f5;fontColor=#333333;strokeColor=#666666;" vertex="1" parent="1">
          <mxGeometry x="-295" y="-226" width="212" height="51" as="geometry" />
        </mxCell>
        <mxCell id="BPMYpQ-44nugHqJNpAQk-11" value="" style="verticalLabelPosition=bottom;verticalAlign=top;html=1;shape=mxgraph.flowchart.on-page_reference;fillColor=#f5f5f5;gradientColor=#b3b3b3;strokeColor=#666666;" vertex="1" parent="1">
          <mxGeometry x="-23" y="-37" width="36" height="34" as="geometry" />
        </mxCell>
        <mxCell id="BPMYpQ-44nugHqJNpAQk-13" style="edgeStyle=none;curved=1;rounded=0;orthogonalLoop=1;jettySize=auto;html=1;exitX=0.5;exitY=1;exitDx=0;exitDy=0;entryX=0.496;entryY=0.183;entryDx=0;entryDy=0;entryPerimeter=0;fontSize=12;startSize=8;endSize=8;" edge="1" parent="1" source="BPMYpQ-44nugHqJNpAQk-4" target="BPMYpQ-44nugHqJNpAQk-5">
          <mxGeometry relative="1" as="geometry" />
        </mxCell>
        <mxCell id="BPMYpQ-44nugHqJNpAQk-15" style="edgeStyle=none;curved=1;rounded=0;orthogonalLoop=1;jettySize=auto;html=1;exitX=0.5;exitY=1;exitDx=0;exitDy=0;entryX=0.496;entryY=0.238;entryDx=0;entryDy=0;entryPerimeter=0;fontSize=12;startSize=8;endSize=8;" edge="1" parent="1" source="BPMYpQ-44nugHqJNpAQk-5" target="BPMYpQ-44nugHqJNpAQk-6">
          <mxGeometry relative="1" as="geometry" />
        </mxCell>
        <mxCell id="BPMYpQ-44nugHqJNpAQk-16" style="edgeStyle=none;curved=1;rounded=0;orthogonalLoop=1;jettySize=auto;html=1;exitX=0.5;exitY=1;exitDx=0;exitDy=0;entryX=0.5;entryY=0;entryDx=0;entryDy=0;entryPerimeter=0;fontSize=12;startSize=8;endSize=8;" edge="1" parent="1" source="BPMYpQ-44nugHqJNpAQk-6" target="BPMYpQ-44nugHqJNpAQk-8">
          <mxGeometry relative="1" as="geometry" />
        </mxCell>
        <mxCell id="BPMYpQ-44nugHqJNpAQk-23" value="CONTINUAR?" style="strokeWidth=2;html=1;shape=mxgraph.flowchart.display;whiteSpace=wrap;fillColor=#e1d5e7;strokeColor=#9673a6;" vertex="1" parent="1">
          <mxGeometry x="-239" y="-150" width="100" height="60" as="geometry" />
        </mxCell>
        <mxCell id="BPMYpQ-44nugHqJNpAQk-24" style="edgeStyle=none;curved=1;rounded=0;orthogonalLoop=1;jettySize=auto;html=1;exitX=0.5;exitY=1;exitDx=0;exitDy=0;entryX=0.5;entryY=0;entryDx=0;entryDy=0;entryPerimeter=0;fontSize=12;startSize=8;endSize=8;" edge="1" parent="1" source="BPMYpQ-44nugHqJNpAQk-9" target="BPMYpQ-44nugHqJNpAQk-23">
          <mxGeometry relative="1" as="geometry" />
        </mxCell>
        <mxCell id="BPMYpQ-44nugHqJNpAQk-25" value="VERIFICA" style="html=1;strokeWidth=2;shape=manualInput;whiteSpace=wrap;rounded=1;size=26;arcSize=11;fillColor=#dae8fc;strokeColor=#6c8ebf;" vertex="1" parent="1">
          <mxGeometry x="-239" y="-73" width="100" height="60" as="geometry" />
        </mxCell>
        <mxCell id="BPMYpQ-44nugHqJNpAQk-26" style="edgeStyle=none;curved=1;rounded=0;orthogonalLoop=1;jettySize=auto;html=1;exitX=0.5;exitY=1;exitDx=0;exitDy=0;exitPerimeter=0;entryX=0.522;entryY=0.2;entryDx=0;entryDy=0;entryPerimeter=0;fontSize=12;startSize=8;endSize=8;" edge="1" parent="1" source="BPMYpQ-44nugHqJNpAQk-23" target="BPMYpQ-44nugHqJNpAQk-25">
          <mxGeometry relative="1" as="geometry" />
        </mxCell>
        <mxCell id="BPMYpQ-44nugHqJNpAQk-27" style="edgeStyle=none;curved=1;rounded=0;orthogonalLoop=1;jettySize=auto;html=1;exitX=0.5;exitY=1;exitDx=0;exitDy=0;entryX=0.145;entryY=0.855;entryDx=0;entryDy=0;entryPerimeter=0;fontSize=12;startSize=8;endSize=8;" edge="1" parent="1" source="BPMYpQ-44nugHqJNpAQk-25" target="BPMYpQ-44nugHqJNpAQk-8">
          <mxGeometry relative="1" as="geometry">
            <Array as="points">
              <mxPoint x="-197" y="64" />
              <mxPoint x="-581" y="-241" />
            </Array>
          </mxGeometry>
        </mxCell>
        <mxCell id="BPMYpQ-44nugHqJNpAQk-33" style="edgeStyle=none;curved=1;rounded=0;orthogonalLoop=1;jettySize=auto;html=1;exitX=0.5;exitY=1;exitDx=0;exitDy=0;exitPerimeter=0;fontSize=12;startSize=8;endSize=8;" edge="1" parent="1" source="BPMYpQ-44nugHqJNpAQk-28" target="BPMYpQ-44nugHqJNpAQk-3">
          <mxGeometry relative="1" as="geometry" />
        </mxCell>
        <mxCell id="BPMYpQ-44nugHqJNpAQk-28" value="SOMA_PRODUTOS" style="strokeWidth=2;html=1;shape=mxgraph.flowchart.display;whiteSpace=wrap;fillColor=#e1d5e7;strokeColor=#9673a6;" vertex="1" parent="1">
          <mxGeometry x="-76" y="42" width="142" height="60" as="geometry" />
        </mxCell>
        <mxCell id="BPMYpQ-44nugHqJNpAQk-30" style="edgeStyle=none;curved=1;rounded=0;orthogonalLoop=1;jettySize=auto;html=1;exitX=0.5;exitY=1;exitDx=0;exitDy=0;exitPerimeter=0;entryX=0.5;entryY=0;entryDx=0;entryDy=0;entryPerimeter=0;fontSize=12;startSize=8;endSize=8;" edge="1" parent="1" source="BPMYpQ-44nugHqJNpAQk-7" target="BPMYpQ-44nugHqJNpAQk-11">
          <mxGeometry relative="1" as="geometry" />
        </mxCell>
        <mxCell id="BPMYpQ-44nugHqJNpAQk-34" value="NAO" style="edgeLabel;html=1;align=center;verticalAlign=middle;resizable=0;points=[];fontSize=12;" vertex="1" connectable="0" parent="BPMYpQ-44nugHqJNpAQk-30">
          <mxGeometry x="-0.1736" relative="1" as="geometry">
            <mxPoint as="offset" />
          </mxGeometry>
        </mxCell>
        <mxCell id="BPMYpQ-44nugHqJNpAQk-32" style="edgeStyle=none;curved=1;rounded=0;orthogonalLoop=1;jettySize=auto;html=1;exitX=0.5;exitY=1;exitDx=0;exitDy=0;exitPerimeter=0;entryX=0.5;entryY=0;entryDx=0;entryDy=0;entryPerimeter=0;fontSize=12;startSize=8;endSize=8;" edge="1" parent="1" source="BPMYpQ-44nugHqJNpAQk-11" target="BPMYpQ-44nugHqJNpAQk-28">
          <mxGeometry relative="1" as="geometry" />
        </mxCell>
      </root>
    </mxGraphModel>
  </diagram>
</mxfile>
